<svg id="visual" viewBox="0 0 540 960" width="540" height="960" xmlns="http://www.w3.org/2000/svg" xmlns:xlink="http://www.w3.org/1999/xlink" version="1.1"><rect x="0" y="0" width="540" height="960" fill="#0a2c3d"></rect><path d="M0 731L18 726.2C36 721.3 72 711.7 108 702.7C144 693.7 180 685.3 216 697.5C252 709.7 288 742.3 324 758.2C360 774 396 773 432 757.3C468 741.7 504 711.3 522 696.2L540 681L540 961L522 961C504 961 468 961 432 961C396 961 360 961 324 961C288 961 252 961 216 961C180 961 144 961 108 961C72 961 36 961 18 961L0 961Z" fill="#0066FF" stroke-linecap="round" stroke-linejoin="miter"></path></svg>