<svg id="visual" viewBox="0 0 540 960" width="540" height="960" xmlns="http://www.w3.org/2000/svg" xmlns:xlink="http://www.w3.org/1999/xlink" version="1.1"><rect x="0" y="0" width="540" height="960" fill="#0a2c3d"></rect><path d="M0 778L18 771.7C36 765.3 72 752.7 108 752.8C144 753 180 766 216 761.5C252 757 288 735 324 721.8C360 708.7 396 704.3 432 708.2C468 712 504 724 522 730L540 736L540 961L522 961C504 961 468 961 432 961C396 961 360 961 324 961C288 961 252 961 216 961C180 961 144 961 108 961C72 961 36 961 18 961L0 961Z" fill="#FF6F61" stroke-linecap="round" stroke-linejoin="miter"></path></svg>