<svg id="visual" viewBox="0 0 540 960" width="540" height="960" xmlns="http://www.w3.org/2000/svg" xmlns:xlink="http://www.w3.org/1999/xlink" version="1.1"><rect x="0" y="0" width="540" height="960" fill="#0a2c3d"></rect><path d="M0 715L18 724.3C36 733.7 72 752.3 108 750.8C144 749.3 180 727.7 216 710.5C252 693.3 288 680.7 324 683C360 685.3 396 702.7 432 713.2C468 723.7 504 727.3 522 729.2L540 731L540 961L522 961C504 961 468 961 432 961C396 961 360 961 324 961C288 961 252 961 216 961C180 961 144 961 108 961C72 961 36 961 18 961L0 961Z" fill="#0066FF" stroke-linecap="round" stroke-linejoin="miter"></path></svg>