<svg id="visual" viewBox="0 0 540 960" width="540" height="960" xmlns="http://www.w3.org/2000/svg" xmlns:xlink="http://www.w3.org/1999/xlink" version="1.1"><rect x="0" y="0" width="540" height="960" fill="#0a2c3d"></rect><path d="M0 682L18 682C36 682 72 682 108 687C144 692 180 702 216 720.2C252 738.3 288 764.7 324 771.2C360 777.7 396 764.3 432 747.8C468 731.3 504 711.7 522 701.8L540 692L540 961L522 961C504 961 468 961 432 961C396 961 360 961 324 961C288 961 252 961 216 961C180 961 144 961 108 961C72 961 36 961 18 961L0 961Z" fill="#FF6F61" stroke-linecap="round" stroke-linejoin="miter"></path></svg>