<svg id="visual" viewBox="0 0 540 960" width="540" height="960" xmlns="http://www.w3.org/2000/svg" xmlns:xlink="http://www.w3.org/1999/xlink" version="1.1"><rect x="0" y="0" width="540" height="960" fill="#0a2c3d"></rect><path d="M0 713L18 720.7C36 728.3 72 743.7 108 737.7C144 731.7 180 704.3 216 694.5C252 684.7 288 692.3 324 701C360 709.7 396 719.3 432 717.5C468 715.7 504 702.3 522 695.7L540 689L540 961L522 961C504 961 468 961 432 961C396 961 360 961 324 961C288 961 252 961 216 961C180 961 144 961 108 961C72 961 36 961 18 961L0 961Z" fill="#0066FF" stroke-linecap="round" stroke-linejoin="miter"></path></svg>